# xmcd
#
# Track frame offsets:
#   150
#   17342
#   36483
#   51201
#   66063
#   86424
#   101611
#   119541
#   137490
#   155002
#   170484
#   185407
#   198379
#   212440
#   228850
#
# Disc length: 3289 seconds
#
# Revision: 0
# Processed by: cddbd v1.5.2PL0 Copyright (c) Steve Scherf et al.
# Submitted via: GXTranscoder 2.0.1939
#
DISCID=c50cd70f
DTITLE=Christophe willem  - Inventaire
DYEAR=1900
DGENRE=Blues
TTITLE0=Jacques a dit
TTITLE1=Quelle chance
TTITLE2=elu produit de l ' annee
TTITLE3=double je 
TTITLE4=chambre avec vue
TTITLE5=le lycee
TTITLE6=intemporel
TTITLE7=safe text
TTITLE8=kiss the bride
TTITLE9=pourquoi tu t ' en vas ?
TTITLE10=demain
TTITLE11=la tortue
TTITLE12=bombe anatomique
TTITLE13=double je 
TTITLE14=jacques a dit
EXTD=
EXTT0=
EXTT1=
EXTT2=
EXTT3=
EXTT4=
EXTT5=
EXTT6=
EXTT7=
EXTT8=
EXTT9=
EXTT10=
EXTT11=
EXTT12=
EXTT13=
EXTT14=
PLAYORDER=
